<svg xmlns="http://www.w3.org/2000/svg" viewBox="0 0 548.59 548.59"><title>estanteriaRecurso 1</title><g id="Capa_2" data-name="Capa 2"><g id="Capa_1-2" data-name="Capa 1"><path d="M363.28,314.71c-1.11-1.84-4-2.94-8.46-5.15s-26.09-12.88-30.13-14.35-7-2.21-9.92,2.21-11.39,14.35-14,17.29-5.14,3.31-9.55,1.1-18.62-6.86-35.47-21.89c-13.11-11.69-22-26.13-24.53-30.55s-.28-6.8,1.93-9c2-2,4.41-5.15,6.62-7.72s2.94-4.42,4.41-7.36.73-5.52-.37-7.73-9.92-23.91-13.6-32.74c-3.58-8.6-7.21-7.44-9.92-7.57s-5.51-.16-8.45-.16a16.18,16.18,0,0,0-11.76,5.52c-4.05,4.41-15.44,15.08-15.44,36.79s15.8,42.68,18,45.62,31.1,47.49,75.34,66.6a252.69,252.69,0,0,0,25.14,9.28,60.35,60.35,0,0,0,27.78,1.75c8.47-1.26,26.09-10.67,29.77-21S364.38,316.55,363.28,314.71ZM138.69,412l14.67-54a146.92,146.92,0,1,1,40.75,39.62Z" style="fill:#fff"/><path d="M548.59,274.29c0,151.49-122.81,274.3-274.3,274.3S0,425.78,0,274.29,122.81,0,274.29,0,548.59,122.81,548.59,274.29ZM190.66,427.77a176.52,176.52,0,1,0-68.43-66.92L97.05,452.39Z" style="fill:#fff"/></g></g></svg>